# xmcd
#
# Track frame offsets:
# 150
# 18034
# 40991
# 73676
# 90161
# 107681
# 127616
# 144423
# 164463
#
# Disc length: 2455 seconds
#
#
# Revision: 0
# Processed by: cddbd v1.5.1PL2 Copyright (c) Steve Scherf et al.
# Submitted via: FreeRIP 2.942 
#
DISCID=64099509
DTITLE=Murphy, Michael - Cosmic Cowboy Souvenir
DYEAR=1973
DGENRE=Country
TTITLE0=Cosmic Cowboy (Part 1)
TTITLE1=Alleys Of Austin
TTITLE2=South Canadian River Song
TTITLE3=Blessing In Disquise
TTITLE4=Temperature Train
TTITLE5=Drunken Lady of the Morning
TTITLE6=Prometheus Busted
TTITLE7=Honolulu
TTITLE8=Rolling Hills
EXTD=LP Rip\nA&M records: 1973
EXTT0=
EXTT1=
EXTT2=
EXTT3=
EXTT4=
EXTT5=
EXTT6=
EXTT7=
EXTT8=
PLAYORDER=
